<svg width="22" height="19" viewBox="0 0 22 19" fill="none" xmlns="http://www.w3.org/2000/svg">
<path fill-rule="evenodd" clip-rule="evenodd" d="M7.82666 11.8216C7.05686 11.8216 6.57573 12.6549 6.96063 13.3216L9.90337 18.4185C10.2883 19.0852 11.2505 19.0852 11.6354 18.4185L14.5782 13.3216C14.9631 12.6549 14.4819 11.8216 13.7121 11.8216L7.82666 11.8216ZM3.74903 7.75891C3.92766 8.06831 4.25779 8.25891 4.61505 8.25891L16.9237 8.25891C17.281 8.25891 17.6111 8.06831 17.7898 7.75891L21.4034 1.5C21.7883 0.833331 21.3071 -2.34747e-06 20.5373 -2.41477e-06L1.00147 -4.12265e-06C0.231666 -4.18995e-06 -0.249458 0.833331 0.135442 1.5L3.74903 7.75891Z" fill="#D98181"/>
</svg>
