<svg width="89" height="95" viewBox="0 0 89 95" fill="none" xmlns="http://www.w3.org/2000/svg">
<path d="M68.8174 48.1464C63.8425 48.1464 60.0157 47.2854 57.3369 45.5633C54.6581 43.7934 53.3187 41.2103 53.3187 37.814C53.3187 36.0919 53.8928 34.6807 55.0408 33.5805C56.2367 32.4325 57.7674 31.8584 59.633 31.8584C60.8767 31.9063 61.7378 32.2172 62.2161 32.7912C62.7423 33.3653 63.0054 33.7958 63.0054 34.0828C63.0054 34.1785 62.7902 34.3459 62.3596 34.5851C61.9291 34.7764 61.4986 35.1591 61.0681 35.7331C60.6376 36.2593 60.4223 37.0964 60.4223 38.2445C60.4223 40.3971 61.092 42.1192 62.4314 43.4107C63.7708 44.6544 65.8995 45.2763 68.8174 45.2763C70.8744 45.2763 72.6204 44.8936 74.0554 44.1283C75.5383 43.3151 76.6625 42.2866 77.4278 41.0429C78.1932 39.7513 78.5759 38.4358 78.5759 37.0964C78.5759 35.0873 78.0018 33.437 76.8538 32.1455C75.7057 30.8539 74.1989 29.7537 72.3333 28.8448C70.5156 27.8881 68.5783 26.9792 66.5213 26.1182C64.4644 25.2572 62.5031 24.2765 60.6376 23.1763C58.8198 22.0761 57.313 20.7128 56.1171 19.0864C54.9212 17.4121 54.2994 15.3313 54.2515 12.8438C54.2037 9.8302 54.8495 7.39059 56.1889 5.525C57.5282 3.61158 59.3938 2.22435 61.7856 1.36331C64.1774 0.454437 66.8323 0 69.7502 0C71.9028 0 74.0076 0.310931 76.0645 0.932793C78.1693 1.55466 79.8913 2.53528 81.2307 3.87468C82.618 5.16623 83.3116 6.88831 83.3116 9.04091C83.3116 10.763 82.7136 12.1981 81.5178 13.3461C80.3697 14.4463 78.8629 14.9964 76.9973 14.9964C75.7536 14.9008 74.8686 14.5898 74.3424 14.0636C73.8641 13.4896 73.6249 13.0591 73.6249 12.7721C73.6249 12.6286 73.9119 12.4612 74.4859 12.2698C75.06 12.0306 75.634 11.6479 76.208 11.1218C76.782 10.5477 77.0691 9.71061 77.0691 8.61039C77.0691 6.79264 76.3754 5.40541 74.9882 4.4487C73.601 3.44416 71.8789 2.94188 69.822 2.94188C66.7127 2.94188 64.4405 3.68333 63.0054 5.16623C61.6182 6.6013 60.9246 8.22771 60.9246 10.0455C60.9246 11.8154 61.4029 13.2504 62.3596 14.3507C63.3163 15.4509 64.7514 16.5272 66.6648 17.5795C68.8174 18.7276 70.9939 19.8039 73.1944 20.8084C75.3948 21.7652 77.4278 22.8415 79.2934 24.0373C81.2068 25.2332 82.7376 26.7401 83.8856 28.5578C85.0337 30.3277 85.6077 32.6238 85.6077 35.4461C85.6077 37.8857 84.8423 40.0622 83.3116 41.9757C81.8287 43.8891 79.8196 45.3959 77.2843 46.4961C74.749 47.5963 71.9267 48.1464 68.8174 48.1464Z" fill="#1E1E1E"/>
<path d="M6.04064 46.9266C5.56229 46.9266 5.22744 46.7592 5.0361 46.4243C4.84476 46.0895 4.74908 45.7307 4.74908 45.348C4.79692 44.5348 4.98826 44.0804 5.32311 43.9847C5.65796 43.8891 6.06456 43.8412 6.54292 43.8412C8.07365 43.8412 9.14995 43.5781 9.77181 43.0519C10.3937 42.4779 10.7764 41.7843 10.9199 40.9711C11.1112 40.1101 11.2069 39.2251 11.2069 38.3162V9.90193C11.2069 8.99306 11.1112 8.1081 10.9199 7.24706C10.7764 6.38602 10.3937 5.69241 9.77181 5.16621C9.14995 4.59219 8.07365 4.30518 6.54292 4.30518C6.06456 4.30518 5.65796 4.25734 5.32311 4.16167C4.98826 4.066 4.79692 3.61156 4.74908 2.79836C4.74908 2.41567 4.84476 2.05691 5.0361 1.72206C5.22744 1.38721 5.56229 1.21979 6.04064 1.21979C7.57138 1.26762 9.00645 1.31546 10.3458 1.36329C11.7331 1.41113 13.1442 1.43504 14.5793 1.43504H26.9208C30.7955 1.48288 33.9287 2.08082 36.3205 3.22888C38.7601 4.37693 40.5301 5.83591 41.6303 7.60583C42.7305 9.37574 43.2806 11.2174 43.2806 13.1308C43.2806 15.6661 42.2521 18.0579 40.1952 20.3062C38.1861 22.5544 35.3399 24.1569 31.6566 25.1136C33.4743 27.9838 35.316 30.8778 37.1816 33.7958C39.0471 36.6659 41.1997 39.3686 43.6394 41.9039C44.3091 42.4301 44.9548 42.8606 45.5767 43.1954C46.2464 43.5303 47.0357 43.7456 47.9446 43.8412C48.3272 43.8891 48.7099 43.9608 49.0926 44.0565C49.4753 44.1043 49.6905 44.5348 49.7384 45.348C49.7384 45.7307 49.6427 46.0895 49.4514 46.4243C49.26 46.7592 48.9252 46.9266 48.4468 46.9266C47.4423 46.8788 46.6291 46.8309 46.0072 46.7831C45.4332 46.7831 44.8592 46.7592 44.2851 46.7114C43.7111 46.7114 42.9457 46.7114 41.989 46.7114C40.0278 46.3287 38.3535 45.6351 36.9663 44.6305C35.6269 43.626 34.3114 42.2387 33.0199 40.4688C31.6805 38.6511 30.4368 36.8094 29.2887 34.9438C28.1407 33.0782 27.0165 31.2605 25.9163 29.4906C25.2944 28.486 24.6487 27.7685 23.979 27.338C23.3571 26.8596 22.1612 26.6204 20.3913 26.6204H18.3105V38.3162C18.3583 39.2251 18.454 40.1101 18.5975 40.9711C18.741 41.7843 19.1237 42.4779 19.7455 43.0519C20.4152 43.5781 21.4915 43.8412 22.9744 43.8412C23.4528 43.8412 23.8594 43.8891 24.1942 43.9847C24.5291 44.0804 24.7204 44.5348 24.7682 45.348C24.7682 45.7307 24.6726 46.0895 24.4812 46.4243C24.2899 46.7592 23.955 46.9266 23.4767 46.9266C20.4152 46.7831 17.4255 46.7114 14.5075 46.7114C13.0725 46.7114 11.6852 46.7114 10.3458 46.7114C9.00645 46.7592 7.57138 46.8309 6.04064 46.9266ZM18.3105 23.8221H24.6247C27.0644 23.8221 28.9778 23.4872 30.365 22.8175C31.8001 22.1478 32.8764 21.2868 33.5939 20.2344C34.3114 19.182 34.7659 18.0818 34.9572 16.9338C35.1964 15.7857 35.316 14.7333 35.316 13.7766C35.316 12.198 34.9572 10.6673 34.2397 9.1844C33.57 7.7015 32.3502 6.48169 30.5803 5.52498C28.8582 4.56827 26.4425 4.08992 23.3332 4.08992C21.2763 4.08992 19.9129 4.49652 19.2432 5.30972C18.6214 6.07509 18.3105 7.65366 18.3105 10.0454V23.8221Z" fill="#1E1E1E"/>
<path fill-rule="evenodd" clip-rule="evenodd" d="M32.1887 80.2315L40.6304 94.8529L49.072 80.2315L32.1887 80.2315ZM28.4744 73.7981L52.7864 73.7981L61.3969 58.8842L19.8638 58.8842L28.4744 73.7981Z" fill="#D98181"/>
<circle cx="18.0579" cy="76.9421" r="17.0579" stroke="#EDDB65" stroke-width="2"/>
<circle cx="19.0084" cy="75.9917" r="3.80166" fill="#EDDB65"/>
<circle cx="70.4259" cy="76.9421" r="17.0579" stroke="#97BBC4" stroke-width="2"/>
<line x1="54.0096" y1="77.5838" x2="86.8422" y2="77.5838" stroke="#97BBC4" stroke-width="2"/>
<line x1="69.7842" y1="60.5259" x2="69.7842" y2="93.3584" stroke="#97BBC4" stroke-width="2"/>
</svg>
